<svg id="Layer_1" data-name="Layer 1" xmlns="http://www.w3.org/2000/svg" viewBox="0 0 192.67 192.67"><title>Logo_rgb</title><path d="M172,191.71H20.62V179.34H172Zm-48.79-32c4.41,1.15,9-1.93,10.31-6.86s-1.24-9.88-5.64-11-9,1.91-10.32,6.85,1.24,9.89,5.65,11M178.08,7.17c-13.74-10.66-42.62-3.4-64.44,4.56a330,330,0,0,0-67.93,34.6C29.75,57.08,10.06,72.93,7,87.38a11.32,11.32,0,0,0,2.21,10c4,4.66,10.72,4.56,12,4.5a6.19,6.19,0,1,0-.56-12.36,7,7,0,0,1-1.43-.13c4.6-16.9,52.93-49.31,98.66-66,30.53-11.14,47.19-10.62,52.61-6.41,2.25,1.75,3.43,3.85,1.83,8.4C168,37.53,147,56.71,116.07,76.66c-5.73,3.69-11.34,7.1-16.68,10.2,4.29-15.18,8.7-30.7,12.51-44a6.19,6.19,0,0,0-11.9-3.4c-3.2,11.2-9.62,33.7-15.84,55.78-12.38,6.42-21.79,10.29-25.48,10.81a6.19,6.19,0,0,0-8.11,8.67c1.06,1.79,3.17,3.76,7.35,3.76a15.8,15.8,0,0,0,2.09-.15c4.28-.58,11.21-3.13,19.66-7-6,21.38-10.86,39.36-11.13,41.79A6.18,6.18,0,0,0,74,159.91a5.32,5.32,0,0,0,.69,0,6.19,6.19,0,0,0,6.13-5.42c.49-3,6.5-24.79,13.81-50.8,10-5.41,21-12,31.73-19,43-28.38,55.44-46.81,58.25-57.29C186.8,19.33,184.47,12.14,178.08,7.17Z"/></svg>